<?xml version="1.0" standalone="no"?>
<!DOCTYPE svg PUBLIC "-//W3C//DTD SVG 20010904//EN"
 "http://www.w3.org/TR/2001/REC-SVG-20010904/DTD/svg10.dtd">
<svg version="1.0" xmlns="http://www.w3.org/2000/svg"
 width="1600.000000pt" height="1600.000000pt" viewBox="0 0 1600.000000 1600.000000"
 preserveAspectRatio="xMidYMid meet">
<metadata>
Created by potrace 1.11, written by Peter Selinger 2001-2013
</metadata>
<g transform="translate(0.000000,1600.000000) scale(0.100000,-0.100000)"
fill="#000000" stroke="none">
<path d="M2359 15210 c0 -14 -2 -34 -4 -45 -3 -11 -7 -45 -10 -75 -3 -30 -8
-62 -10 -70 -4 -14 -23 -158 -30 -228 -2 -18 -6 -45 -9 -60 -3 -15 -8 -52 -11
-82 -3 -30 -8 -62 -10 -70 -2 -8 -7 -44 -10 -80 -4 -36 -8 -67 -10 -70 -2 -3
-6 -34 -10 -70 -4 -36 -9 -74 -11 -85 -2 -11 -6 -40 -9 -65 -3 -25 -7 -56 -10
-70 -2 -14 -7 -47 -10 -75 -7 -65 -17 -135 -21 -160 -3 -11 -6 -40 -9 -65 -3
-25 -7 -56 -10 -70 -3 -14 -7 -43 -9 -65 -3 -22 -14 -112 -26 -200 -12 -88
-23 -173 -25 -190 -2 -16 -8 -59 -14 -95 -5 -36 -13 -90 -16 -120 -3 -30 -8
-66 -10 -80 -2 -14 -6 -45 -10 -70 -5 -44 -13 -99 -20 -150 -2 -14 -7 -45 -10
-70 -3 -25 -8 -56 -10 -70 -2 -14 -7 -52 -11 -85 -3 -33 -8 -68 -10 -79 -2
-10 -6 -44 -10 -75 -3 -31 -8 -63 -9 -72 -2 -9 -6 -40 -10 -70 -3 -30 -8 -61
-10 -69 -2 -8 -7 -40 -10 -70 -3 -30 -13 -100 -20 -155 -8 -55 -17 -122 -20
-150 -3 -27 -7 -59 -9 -71 -2 -12 -7 -45 -11 -74 -4 -29 -8 -60 -10 -69 -1 -9
-6 -45 -10 -81 -11 -89 -11 -90 -18 -135 -4 -22 -9 -60 -12 -85 -4 -25 -8 -56
-10 -70 -2 -14 -9 -63 -15 -110 -16 -123 -21 -162 -25 -190 -2 -14 -7 -50 -10
-80 -4 -30 -9 -62 -10 -71 -2 -9 -6 -40 -10 -70 -3 -30 -8 -61 -10 -69 -2 -8
-7 -43 -10 -78 -4 -35 -8 -73 -11 -85 -2 -12 -8 -56 -14 -97 -19 -153 -41
-316 -45 -340 -2 -14 -16 -113 -30 -220 -15 -107 -28 -208 -30 -225 -3 -16 -9
-68 -15 -115 -6 -47 -13 -96 -15 -110 -2 -14 -7 -45 -10 -70 -3 -25 -12 -90
-19 -145 -8 -55 -18 -124 -21 -154 -4 -30 -8 -61 -10 -70 -1 -9 -6 -41 -9 -72
-4 -31 -8 -65 -10 -75 -2 -11 -7 -44 -11 -74 -3 -30 -8 -66 -10 -80 -2 -14 -6
-45 -10 -70 -3 -25 -8 -56 -10 -70 -2 -14 -7 -47 -10 -75 -3 -27 -8 -61 -10
-75 -4 -28 -33 -242 -40 -305 -3 -22 -10 -69 -15 -105 -5 -36 -12 -83 -14
-105 -3 -22 -8 -51 -10 -65 -2 -14 -7 -50 -11 -81 -3 -31 -7 -65 -9 -75 -2
-11 -7 -44 -11 -74 -3 -30 -8 -66 -10 -80 -2 -14 -6 -47 -10 -75 -3 -27 -8
-61 -10 -75 -2 -14 -9 -63 -15 -110 -12 -88 -14 -108 -24 -175 -4 -22 -8 -60
-11 -85 -2 -25 -7 -63 -10 -85 -4 -22 -8 -51 -10 -65 -2 -14 -9 -63 -15 -110
-6 -47 -13 -96 -15 -110 -2 -14 -6 -43 -9 -65 -3 -22 -8 -58 -11 -80 -7 -58
-14 -116 -19 -150 -3 -16 -10 -68 -16 -115 -15 -112 -17 -127 -34 -250 -8 -58
-20 -143 -26 -190 -6 -47 -12 -98 -15 -115 -2 -16 -7 -52 -10 -80 -3 -27 -8
-61 -11 -75 -2 -14 -7 -43 -9 -65 -9 -70 -15 -119 -20 -145 -2 -14 -7 -49 -10
-79 -4 -30 -8 -61 -10 -70 -1 -9 -6 -45 -10 -81 -4 -36 -8 -67 -10 -70 -2 -3
-6 -34 -10 -70 -4 -36 -9 -74 -11 -85 -2 -11 -6 -40 -9 -65 -3 -25 -7 -56 -10
-70 -2 -14 -7 -47 -10 -75 -3 -27 -7 -61 -10 -75 -2 -14 -7 -47 -10 -75 -3
-27 -7 -61 -10 -75 -2 -14 -7 -47 -10 -75 -3 -27 -8 -61 -10 -75 -3 -21 -23
-167 -51 -385 -3 -22 -7 -47 -9 -55 -2 -8 -7 -44 -10 -80 -3 -36 -8 -72 -10
-80 -2 -8 -7 -40 -10 -70 -3 -30 -8 -62 -10 -70 -2 -8 -7 -40 -10 -70 -3 -30
-8 -66 -10 -80 -7 -44 -15 -103 -25 -180 -20 -156 -41 -316 -45 -340 -2 -14
-11 -79 -20 -145 -9 -66 -18 -136 -21 -155 -11 -75 -23 -167 -29 -219 -4 -30
-9 -63 -11 -75 -2 -12 -6 -41 -9 -66 -3 -25 -9 -69 -14 -98 -4 -28 -4 -52 0
-52 5 0 9 8 10 18 1 23 4 38 23 103 9 31 19 65 21 75 2 11 18 69 34 131 17 62
69 258 117 435 47 178 92 348 100 378 9 30 17 66 20 79 3 14 7 28 10 33 3 4 7
16 9 25 2 16 30 122 80 308 8 28 30 111 49 185 20 74 54 203 76 285 23 83 42
157 45 165 17 67 60 231 95 359 23 84 43 161 45 170 2 9 28 108 59 221 30 113
82 306 115 430 33 124 85 320 116 435 31 116 58 215 59 220 11 41 34 129 153
575 74 278 143 538 154 578 10 39 28 105 38 145 11 39 31 117 46 172 15 55 29
107 31 115 5 22 20 76 39 145 9 33 18 67 20 75 3 15 17 68 75 285 18 66 33
125 34 130 3 12 21 78 46 170 25 87 160 594 165 615 4 18 23 91 110 415 36
138 75 282 85 320 11 39 35 131 55 205 20 74 43 161 51 194 8 32 19 66 25 75
8 14 9 13 5 -4 -8 -29 -16 -86 -32 -220 -1 -9 -11 -77 -19 -133 -2 -13 -7 -53
-11 -90 -3 -37 -8 -70 -10 -73 -1 -3 -6 -31 -9 -63 -4 -31 -8 -65 -10 -74 -1
-9 -6 -42 -10 -72 -3 -30 -8 -66 -10 -80 -2 -14 -6 -45 -10 -70 -3 -25 -8 -56
-10 -70 -2 -14 -7 -50 -10 -80 -7 -58 -12 -99 -20 -140 -2 -14 -7 -47 -10 -75
-3 -27 -7 -61 -10 -75 -2 -14 -7 -47 -10 -75 -3 -27 -13 -99 -21 -160 -8 -60
-17 -128 -20 -150 -2 -22 -7 -51 -9 -65 -2 -14 -7 -45 -10 -70 -3 -25 -8 -56
-10 -70 -2 -14 -7 -50 -10 -80 -4 -30 -8 -66 -10 -80 -2 -14 -6 -45 -10 -70
-3 -25 -8 -56 -10 -70 -2 -14 -7 -49 -10 -79 -4 -30 -8 -62 -10 -71 -2 -9 -6
-43 -9 -76 -4 -32 -8 -66 -11 -74 -2 -8 -6 -40 -10 -71 -3 -31 -7 -66 -9 -76
-3 -11 -7 -44 -11 -74 -3 -30 -8 -61 -10 -69 -2 -8 -6 -42 -10 -75 -3 -33 -8
-71 -10 -85 -2 -14 -7 -45 -10 -70 -4 -25 -8 -56 -10 -70 -3 -14 -6 -45 -9
-70 -2 -25 -12 -97 -21 -160 -9 -63 -18 -131 -21 -150 -2 -19 -6 -48 -9 -65
-8 -53 -17 -119 -20 -153 -2 -18 -6 -50 -9 -70 -3 -20 -8 -57 -11 -82 -4 -25
-8 -56 -10 -70 -2 -14 -6 -43 -9 -65 -3 -22 -8 -58 -11 -80 -2 -22 -7 -58 -10
-80 -24 -170 -98 -719 -110 -814 -3 -23 -7 -55 -9 -70 -2 -14 -7 -48 -11 -76
-7 -57 -15 -108 -20 -145 -2 -14 -9 -63 -15 -110 -6 -47 -13 -96 -15 -110 -2
-14 -7 -52 -10 -85 -4 -33 -8 -67 -10 -75 -3 -12 -45 -319 -70 -520 -4 -25 -8
-51 -10 -57 -3 -7 -1 -13 4 -13 7 0 23 55 56 190 5 19 96 358 125 465 12 44
23 87 25 95 3 15 212 796 260 975 13 50 41 150 61 224 20 74 37 142 39 150 2
9 11 41 19 71 14 54 39 146 97 365 16 61 41 153 55 205 15 52 27 99 28 105 1
5 5 19 9 30 3 11 8 31 11 45 3 14 17 68 31 120 72 264 107 396 111 410 2 8 10
42 19 75 150 560 188 703 190 718 2 9 6 21 9 25 3 5 7 20 10 34 4 24 57 225
131 498 37 136 147 551 200 750 18 69 65 247 105 395 40 149 74 277 76 285 12
52 67 250 69 248 1 -2 150 -223 330 -493 181 -269 433 -645 560 -835 226 -337
867 -1293 1059 -1579 55 -83 94 -151 92 -160 -8 -24 -16 -71 -21 -121 -3 -25
-7 -54 -10 -65 -26 -122 -26 -645 0 -795 2 -14 7 -47 10 -75 35 -289 154 -666
301 -952 29 -57 51 -103 50 -103 -1 0 -117 34 -257 75 -140 42 -261 77 -270
80 -9 2 -63 17 -119 34 -57 17 -107 31 -111 31 -5 0 38 -70 94 -155 56 -85
154 -235 218 -332 64 -98 201 -306 304 -463 103 -157 239 -365 304 -462 64
-98 193 -294 286 -436 94 -142 186 -283 205 -313 19 -30 38 -55 42 -57 4 -2 8
-8 8 -13 0 -4 26 -48 59 -96 32 -48 158 -241 281 -428 297 -452 387 -590 555
-845 77 -118 186 -284 240 -367 55 -84 104 -153 109 -153 5 0 4 6 -2 13 -6 6
-26 55 -45 107 -47 127 -111 299 -258 700 -68 184 -194 526 -280 760 -86 234
-155 426 -154 428 2 2 21 -6 43 -17 56 -28 169 -69 252 -90 139 -35 267 -48
445 -45 217 4 246 7 403 45 129 31 148 38 271 96 40 18 74 33 76 31 2 -3 -287
-782 -310 -833 -7 -16 -20 -50 -28 -75 -17 -49 -123 -336 -134 -360 -3 -8 -7
-17 -7 -20 -1 -3 -11 -30 -23 -60 -63 -162 -243 -653 -240 -656 2 -2 619 919
1370 2046 1061 1592 1362 2049 1345 2046 -28 -5 -481 -136 -489 -142 -3 -2
-19 -6 -35 -9 -16 -3 -94 -25 -174 -49 -80 -24 -146 -43 -147 -42 -2 2 16 38
40 82 48 89 138 286 162 354 66 190 105 329 135 480 18 97 20 104 25 145 3 22
8 51 10 65 5 23 9 72 20 215 5 64 6 379 1 425 -2 19 -7 69 -10 110 -4 41 -11
100 -16 130 -22 130 -42 87 217 473 302 450 770 1148 1028 1532 111 165 325
485 476 710 151 226 276 412 279 415 3 3 15 20 26 38 l20 32 68 -257 c38 -142
74 -279 82 -304 8 -25 16 -54 18 -65 2 -10 14 -55 26 -99 18 -68 37 -139 54
-205 8 -29 47 -175 51 -190 6 -22 75 -282 80 -300 5 -22 63 -239 75 -280 12
-42 33 -121 35 -135 2 -5 14 -53 28 -105 43 -157 58 -212 77 -285 10 -38 27
-105 39 -147 26 -96 61 -228 66 -248 2 -8 20 -76 40 -150 20 -74 40 -151 44
-171 4 -19 10 -40 14 -46 3 -5 9 -23 12 -39 3 -16 12 -54 20 -84 9 -30 17 -62
19 -70 2 -8 11 -42 20 -75 9 -33 19 -68 21 -78 2 -10 14 -52 25 -95 12 -42 23
-84 25 -92 2 -8 9 -35 16 -60 7 -25 13 -50 15 -56 1 -6 16 -63 33 -125 75
-278 93 -346 101 -379 4 -19 20 -80 35 -135 52 -190 116 -430 121 -455 3 -14
9 -38 15 -55 12 -38 45 -161 144 -535 19 -75 89 -337 101 -380 8 -30 17 -62
19 -70 12 -54 55 -212 59 -218 3 -5 7 -19 10 -33 2 -13 14 -58 24 -99 11 -41
39 -147 62 -235 22 -88 43 -164 45 -170 6 -15 -2 69 -14 155 -14 95 -19 135
-25 185 -3 22 -14 105 -26 185 -20 145 -25 183 -35 263 -3 23 -8 53 -10 67 -2
14 -7 48 -10 75 -3 28 -8 61 -10 75 -2 14 -6 48 -10 75 -3 28 -10 82 -16 120
-5 39 -16 122 -25 185 -8 63 -17 126 -19 140 -2 14 -6 45 -9 70 -3 25 -10 76
-16 113 -6 37 -13 89 -16 115 -2 26 -7 58 -9 72 -3 14 -7 48 -11 75 -3 28 -14
111 -24 185 -11 74 -22 162 -26 195 -3 33 -8 63 -9 66 -2 3 -7 39 -11 80 -3
41 -8 76 -9 79 -2 3 -6 33 -10 65 -4 33 -8 71 -11 85 -5 29 -33 230 -38 275
-2 17 -9 68 -16 115 -6 47 -13 99 -15 115 -2 17 -6 46 -9 65 -3 19 -10 73 -16
120 -6 47 -13 96 -15 110 -2 14 -6 45 -10 70 -3 25 -10 77 -15 115 -6 39 -12
86 -14 105 -11 87 -18 139 -26 188 -5 29 -9 56 -8 60 1 4 -1 25 -5 47 -4 22
-9 60 -12 85 -4 25 -8 56 -10 70 -3 14 -7 45 -9 70 -3 25 -14 108 -25 185 -11
77 -23 163 -26 190 -4 28 -8 61 -10 75 -2 14 -7 48 -10 75 -3 28 -8 61 -10 75
-5 31 -19 133 -31 230 -3 25 -7 56 -9 70 -2 14 -7 45 -10 70 -3 25 -8 56 -10
70 -2 14 -7 50 -10 80 -4 30 -9 62 -10 70 -1 8 -6 40 -10 70 -3 30 -8 66 -10
80 -4 29 -14 100 -20 150 -3 19 -12 85 -20 145 -21 152 -23 162 -29 230 -3 33
-4 56 -1 50 3 -8 202 -750 221 -825 10 -40 85 -323 103 -385 11 -38 34 -124
51 -190 17 -66 58 -219 90 -340 33 -121 140 -524 239 -895 163 -614 452 -1695
532 -1995 17 -66 44 -167 59 -225 90 -342 272 -1020 281 -1046 5 -17 11 -40
13 -50 5 -25 60 -233 161 -609 46 -170 95 -353 109 -405 13 -52 32 -122 41
-155 9 -33 18 -67 20 -75 2 -8 20 -76 40 -150 20 -74 38 -142 40 -150 2 -8 8
-35 15 -60 7 -25 14 -56 17 -69 2 -14 6 -28 9 -33 4 -7 30 -98 39 -138 4 -17
73 -278 101 -382 10 -38 22 -68 27 -68 4 0 6 4 2 9 -3 5 -8 30 -10 54 -3 25
-8 56 -10 68 -3 13 -7 44 -11 69 -10 82 -15 125 -19 150 -2 14 -6 48 -10 75
-8 68 -12 97 -26 190 -6 44 -12 89 -14 100 -1 11 -6 47 -10 80 -4 33 -9 67
-10 76 -2 9 -6 40 -10 70 -3 30 -8 65 -10 79 -2 14 -6 45 -10 70 -5 44 -13
101 -20 150 -2 14 -9 63 -15 110 -6 47 -12 99 -15 115 -2 17 -9 66 -15 110 -5
44 -12 91 -14 105 -3 14 -7 48 -11 75 -7 55 -9 73 -24 185 -6 41 -13 98 -17
125 -3 28 -7 57 -9 65 -2 8 -7 40 -10 70 -3 30 -8 66 -10 80 -2 14 -9 63 -15
110 -7 47 -13 94 -15 105 -1 11 -6 47 -9 80 -4 33 -9 67 -11 75 -2 8 -7 42
-11 75 -3 33 -8 67 -9 76 -2 9 -6 40 -10 70 -3 30 -8 65 -10 79 -2 14 -11 79
-20 145 -9 66 -18 131 -20 145 -8 55 -15 107 -20 150 -4 25 -8 56 -10 70 -2
14 -6 48 -10 75 -3 28 -8 61 -10 75 -2 14 -6 48 -10 75 -3 28 -8 61 -10 75 -2
14 -11 81 -20 150 -9 69 -18 132 -20 140 -2 8 -6 42 -10 75 -3 33 -8 71 -10
85 -3 14 -7 41 -9 60 -10 80 -18 136 -22 160 -2 14 -7 52 -10 85 -4 33 -8 62
-9 65 -2 3 -6 33 -10 65 -3 33 -10 85 -15 115 -5 30 -12 78 -15 105 -3 28 -8
61 -10 75 -2 14 -7 46 -10 72 -3 26 -10 80 -15 120 -6 40 -12 89 -15 108 -2
19 -11 87 -20 150 -8 63 -17 129 -19 145 -8 61 -27 201 -31 225 -2 14 -6 45
-10 70 -3 25 -8 56 -10 70 -2 14 -7 52 -11 85 -3 33 -8 69 -10 80 -2 11 -9 58
-14 105 -6 47 -13 99 -16 115 -3 17 -7 46 -9 65 -2 19 -6 49 -9 65 -2 17 -8
55 -11 85 -3 30 -11 84 -16 120 -6 35 -12 85 -15 110 -2 25 -11 92 -19 150
-20 138 -22 150 -35 250 -6 47 -13 96 -15 110 -2 14 -9 63 -15 110 -6 47 -13
96 -15 110 -2 14 -7 50 -10 80 -3 30 -8 62 -10 70 -2 8 -7 40 -10 70 -3 30 -7
66 -10 80 -2 14 -7 45 -10 70 -3 25 -7 54 -9 65 -2 11 -7 47 -11 80 -12 104
-15 128 -20 156 -3 15 -7 47 -10 70 -6 51 -14 113 -20 149 -4 25 -9 61 -20
150 -3 25 -8 61 -10 80 -3 19 -14 100 -25 180 -12 80 -23 163 -26 185 -2 22
-6 56 -9 75 -3 19 -7 58 -10 85 -3 28 -8 57 -10 65 -2 8 -7 40 -10 70 -3 30
-10 80 -15 110 -5 30 -12 78 -15 105 -3 28 -7 59 -9 70 -2 11 -7 45 -10 76 -4
31 -8 66 -11 77 -2 12 -6 45 -9 74 -4 29 -8 62 -10 73 -2 11 -7 45 -10 76 -4
31 -8 65 -10 75 -2 11 -7 46 -10 79 -4 33 -9 67 -11 75 -2 8 -7 36 -10 63 -3
26 -7 68 -10 95 -3 26 -8 54 -10 62 -2 8 -7 42 -11 75 -3 33 -8 68 -10 79 -2
10 -6 44 -9 75 -4 31 -8 63 -11 71 -2 8 -6 38 -9 65 -7 68 -13 111 -19 143 -3
15 -8 52 -11 82 -5 47 -28 217 -40 300 -6 45 -14 104 -20 150 -4 25 -8 56 -10
70 -2 14 -6 46 -9 72 -7 52 -12 92 -26 188 -5 36 -14 103 -20 150 -6 47 -13
96 -15 110 -2 14 -6 43 -9 65 -5 35 -23 173 -31 230 -1 11 -5 45 -9 75 -4 30
-9 66 -11 80 -2 14 -7 43 -9 65 -6 46 -41 304 -61 450 -3 17 -7 53 -10 80 -4
28 -8 57 -10 65 -2 8 -7 42 -10 75 -4 33 -8 61 -9 62 -1 2 -36 -57 -78 -130
-41 -72 -98 -172 -126 -221 -29 -49 -52 -90 -52 -92 0 -2 -29 -53 -65 -115
-36 -61 -65 -113 -65 -115 0 -2 -18 -33 -40 -69 -22 -36 -40 -67 -40 -69 0 -2
-40 -73 -88 -157 -49 -85 -144 -252 -213 -373 l-124 -218 -11 83 c-6 46 -14
104 -18 129 -16 121 -38 279 -41 310 -3 19 -7 50 -9 68 -6 40 -11 74 -31 227
-9 66 -18 130 -20 143 -2 13 -7 55 -11 94 -9 90 10 113 -193 -244 -39 -69 -58
-102 -90 -156 -17 -29 -31 -55 -31 -57 0 -2 -19 -36 -43 -77 -44 -73 -76 -130
-127 -223 -33 -59 -246 -433 -259 -455 -14 -22 -168 -295 -204 -360 -16 -30
-36 -62 -43 -71 -8 -8 -14 -19 -14 -22 0 -4 -26 -53 -59 -110 -64 -112 -361
-634 -433 -762 -25 -44 -55 -96 -65 -115 -11 -19 -55 -96 -97 -170 -42 -74
-80 -142 -86 -150 -5 -8 -20 -33 -31 -55 -12 -22 -73 -129 -135 -238 -63 -110
-114 -201 -114 -203 0 -2 -11 -23 -26 -45 -14 -22 -34 -57 -46 -77 -11 -20
-59 -104 -106 -187 -47 -82 -96 -170 -110 -195 -14 -25 -78 -137 -142 -250
-127 -222 -484 -850 -520 -915 -12 -22 -44 -77 -71 -123 -27 -45 -49 -85 -49
-87 0 -2 -13 -26 -29 -53 -15 -26 -40 -68 -53 -93 -14 -24 -38 -65 -53 -91
-15 -27 -29 -48 -33 -48 -6 0 -122 88 -132 100 -18 21 -233 153 -330 201 -290
144 -572 212 -885 213 -105 0 -243 -9 -295 -19 -10 -2 -33 -6 -51 -9 -262 -44
-524 -148 -764 -303 -55 -36 -131 -90 -168 -120 -38 -30 -70 -53 -72 -51 -4 4
-321 561 -357 628 -17 30 -34 60 -38 65 -4 6 -22 36 -39 68 -18 32 -121 215
-230 405 -109 191 -209 367 -223 392 -76 137 -230 407 -238 420 -5 8 -18 31
-28 50 -10 19 -40 70 -65 113 -26 43 -47 80 -47 83 0 2 -20 38 -45 80 -25 41
-45 78 -45 80 0 2 -11 21 -24 42 -13 20 -64 109 -113 197 -94 166 -530 933
-565 995 -37 62 -53 92 -168 295 -62 110 -116 205 -120 210 -4 6 -21 35 -37
65 -25 45 -145 257 -255 450 -11 19 -78 136 -148 260 -70 124 -198 348 -284
499 -86 151 -156 278 -156 283 0 13 -17 9 -17 -4 0 -14 -13 -112 -18 -137 -1
-9 -6 -41 -9 -72 -4 -31 -8 -65 -10 -75 -2 -11 -7 -44 -10 -75 -4 -31 -8 -65
-10 -75 -2 -11 -7 -44 -11 -74 -3 -30 -8 -66 -10 -80 -2 -14 -6 -45 -10 -70
-3 -25 -8 -56 -10 -70 -2 -14 -7 -47 -10 -75 -3 -27 -10 -79 -15 -115 -5 -36
-12 -92 -16 -125 -3 -33 -7 -61 -8 -63 -3 -3 -132 222 -671 1173 -109 193
-204 359 -212 370 -13 19 -13 19 -14 -5z"/>
<path d="M1952 4010 c0 -14 2 -19 5 -12 2 6 2 18 0 25 -3 6 -5 1 -5 -13z"/>
</g>
</svg>
