<?xml version="1.0" encoding="utf-8"?>
<!-- Generator: Adobe Illustrator 24.0.1, SVG Export Plug-In . SVG Version: 6.00 Build 0)  -->
<svg version="1.1" id="Layer_2" xmlns="http://www.w3.org/2000/svg" xmlns:xlink="http://www.w3.org/1999/xlink" x="0px" y="0px"
	 viewBox="0 0 575 280" style="enable-background:new 0 0 575 280;" xml:space="preserve">
<polyline style="fill:none;stroke:#4776C9;stroke-miterlimit:10;" points="281.5,142 281.5,54.5 281.5,226.5 281.5,141.5 
	377.5,140.5 184.5,143.5 281.5,141.5 214.1,207.8 353.1,70.8 281.5,141.5 353.5,210.5 195.5,62.5 250.5,113.5 240.5,142.5 
	252.5,170.5 281.5,185.5 312.5,171.5 324.5,141.5 309.5,113.5 281.5,101.5 250.5,113.5 226.5,90.5 203.5,143.5 225.5,196.5 
	281.5,215.5 335.5,192.5 356.5,140.5 334.5,87.5 281.5,68.5 226.5,90.5 "/>
<path style="fill:#26468C;" d="M306,157.2l-5.9-43.9l-12.6,22.2c-1.4-2.2-3.6-3.6-6.1-3.6c-2.5,0-4.6,1.4-6,3.5l-12.6-22.1
	l-5.9,43.9l8.3-31.3l8.8,13.1c-0.1,0.6-0.2,1.3-0.2,2c0,1.9,0.5,3.6,1.3,5.1l-2.6-0.8l9,13.7l-2.5-6.7c0.7,0.3,1.5,0.5,2.4,0.5
	c1,0,1.9-0.2,2.6-0.6l-2.5,6.8l9.1-13.7l-2.9,0.8c0.9-1.5,1.4-3.2,1.4-5.2c0-0.7-0.1-1.3-0.2-1.9l8.8-13.2L306,157.2z"/>
</svg>
